<?xml version="1.0" encoding="UTF-8"?>
<svg width="32" height="32" viewBox="0 0 32 32" fill="none" xmlns="http://www.w3.org/2000/svg">
  <defs>
    <linearGradient id="gradient" x1="0%" y1="0%" x2="100%" y2="100%">
      <stop offset="0%" style="stop-color:#FFA726" />
      <stop offset="100%" style="stop-color:#FF5252" />
    </linearGradient>
  </defs>
  <circle cx="16" cy="16" r="15" fill="url(#gradient)" stroke="white" stroke-width="2"/>
  <path d="M16 4C9.373 4 4 9.373 4 16s5.373 12 12 12 12-5.373 12-12S22.627 4 16 4zm1 2.062c2.838.267 5.38 1.55 7.219 3.438l-3.438 3.438c-.816-.816-1.784-1.445-2.843-1.876L18 7.062zM16 8c.687 0 1.352.081 2 .219V13c-.648-.138-1.313-.219-2-.219s-1.352.081-2 .219V8.219c.648-.138 1.313-.219 2-.219zm-1 2.062L13.219 14c-1.059.431-2.027 1.06-2.843 1.876L6.937 12.44C8.776 10.551 11.318 9.267 15 8.062zM8.062 15l3.438 3.438c-.816.816-1.445 1.784-1.876 2.843L5.062 21c-.267-2.838.55-5.38 3-6.219zM13 18v4.781c-2.838-.267-5.38-1.55-7.219-3.438l3.438-3.438c.816.816 1.784 1.445 2.843 1.876L13 18zm3-2c.687 0 1.352.081 2 .219v4.781c-.648.138-1.313.219-2 .219s-1.352-.081-2-.219v-4.781c.648-.138 1.313-.219 2-.219zm1 2.062l1.781 1.781c1.059-.431 2.027-1.06 2.843-1.876l3.438 3.438c-1.839 1.889-4.381 3.173-7.219 3.438L17 18.062zm6.938-3.124l-3.438-3.438c.816-.816 1.445-1.784 1.876-2.843L26.938 11c.267 2.838-.55 5.38-3 6.219z" fill="white"/>
</svg>
